<svg width="50" height="50" viewBox="0 0 50 50" fill="none" xmlns="http://www.w3.org/2000/svg">
            <path
              d="M25.6667 1.66669C12.4117 1.66669 1.66666 12.4117 1.66666 25.6667C1.66666 38.9217 12.4117 49.6667 25.6667 49.6667C38.9217 49.6667 49.6667 38.9217 49.6667 25.6667C49.6667 12.4117 38.9217 1.66669 25.6667 1.66669ZM19.7917 35.6142H14.9317V19.9742H19.7917V35.6142ZM17.3317 18.0542C15.7967 18.0542 14.8042 16.9667 14.8042 15.6217C14.8042 14.2492 15.8267 13.1942 17.3942 13.1942C18.9617 13.1942 19.9217 14.2492 19.9517 15.6217C19.9517 16.9667 18.9617 18.0542 17.3317 18.0542ZM37.5417 35.6142H32.6817V26.9467C32.6817 24.9292 31.9767 23.5592 30.2192 23.5592C28.8767 23.5592 28.0792 24.4867 27.7267 25.3792C27.5967 25.6967 27.5642 26.1467 27.5642 26.5942V35.6117H22.7017V24.9617C22.7017 23.0092 22.6392 21.3767 22.5742 19.9717H26.7967L27.0192 22.1442H27.1167C27.7567 21.1242 29.3242 19.6192 31.9467 19.6192C35.1442 19.6192 37.5417 21.7617 37.5417 26.3667V35.6142Z"
              fill="#fff" />
          </svg>