<svg width="48" height="36" viewBox="0 0 48 36" fill="none" xmlns="http://www.w3.org/2000/svg">
            <path
              d="M44.5449 6.87615L31.9487 0.772954C29.8216 -0.257687 27.1785 -0.257616 25.0513 0.772954L12.4552 6.87615C10.3239 7.90869 9 9.83434 9 11.9015V24.0984C9 26.1656 10.3239 28.0913 12.4551 29.1238L25.0513 35.227C27.1789 36.2578 29.8218 36.2575 31.9487 35.227L44.5448 29.1238C46.6761 28.0913 48 26.1656 48 24.0984V11.9015C48 9.83441 46.6761 7.90876 44.5449 6.87615ZM44.6524 24.0984C44.6524 25.1632 43.9704 26.1551 42.8726 26.687L30.2763 32.7902C29.1806 33.3212 27.8193 33.3212 26.7236 32.7902L14.1273 26.687C13.0296 26.1551 12.3476 25.1632 12.3476 24.0984V11.9015C12.3476 10.8368 13.0296 9.84488 14.1274 9.31304L26.7236 3.20984C27.8194 2.67884 29.1811 2.67906 30.2764 3.20984L42.8727 9.31297C43.9704 9.84488 44.6524 10.8367 44.6524 11.9015V24.0984Z"
              fill="#fff" />
            <path
              d="M26.9094 16.9263L20.6927 12.5062C19.9871 12.0045 18.9308 12.0784 18.3337 12.6714C17.7366 13.2644 17.8246 14.1518 18.5303 14.6536L23.2369 18L18.5303 21.3464C17.8246 21.8482 17.7367 22.7356 18.3337 23.3286C18.9323 23.9229 19.9888 23.9942 20.6927 23.4937L26.9094 19.0736C27.7002 18.5114 27.698 17.487 26.9094 16.9263Z"
              fill="#fff" />
            <path
              d="M37.3885 21.0135H29.8567C28.9323 21.0135 28.1829 21.6432 28.1829 22.42C28.1829 23.1968 28.9323 23.8265 29.8567 23.8265H37.3885C38.3129 23.8265 39.0623 23.1968 39.0623 22.42C39.0623 21.6432 38.313 21.0135 37.3885 21.0135Z"
              fill="#fff" />
          </svg>